<?xml version="1.0" encoding="utf-8" ?>
<svg xmlns="http://www.w3.org/2000/svg" xmlns:xlink="http://www.w3.org/1999/xlink" width="796" height="843">
	<path fill="#F4A00A" d="M422.126 203.283C427.019 208.554 429.776 216.228 433.607 222.321C438.204 229.63 444.899 236.416 450.969 242.527C465.965 257.626 483.086 270.164 499.131 284.057C537.039 316.881 576.398 360.422 591.469 409.332C596.39 425.3 598.376 442.039 596.381 458.677C590.077 511.242 547.161 560.023 508.258 592.714C498.901 600.524 489.421 608.185 479.821 615.695C466.583 625.883 452.771 635.712 441.652 648.297C430.732 660.657 424.983 675.07 417.372 689.414C417.729 684.849 418.855 680.239 419.596 675.716C421.045 667.391 422.094 659.002 422.738 650.577C423.692 636.725 423.401 622.383 422.98 608.503C422.818 603.155 422.359 597.783 422.381 592.434C422.391 590.163 422.415 586.369 423.687 584.434C430.741 573.699 448.106 558.612 457.939 548.911L508.171 498.711C525.858 479.766 544.948 462.058 562.728 443.172L520.623 400.683C516.88 403.125 501.836 417.456 501.373 421.088C500.944 424.449 516.415 437.844 519.236 441.481C520.258 442.797 520.675 443.711 520.491 445.38C510.067 457.089 498.395 467.619 487.238 478.621C474.321 491.358 461.78 504.519 449.066 517.464C441.592 525.02 434.196 532.653 426.879 540.362C421.551 546.031 416.135 552.999 409.909 557.618C403.325 553.043 397.538 545.928 391.999 540.144C383.612 531.362 375.175 522.628 366.687 513.944C357.75 504.8 300.587 449.569 298.694 445.108C299.399 440.681 315.071 425.551 319.175 421.211C312.71 414.145 306.015 407.275 299.824 399.965C289.122 407.558 278.229 419.512 269.075 428.955C264.628 433.543 259.657 438.059 255.811 443.159C267.026 456.134 279.972 467.261 292.154 479.271C310.695 497.55 328.779 516.315 347.167 534.751C359.849 547.465 373.1 559.74 385.232 572.976C388.591 576.642 394.768 582.302 396.08 587.139C397.592 592.716 395.974 604.292 395.654 610.282C395.252 616.919 395.073 623.567 395.119 630.216C395.487 650.286 398.19 670.245 403.174 689.69C398.458 683.943 395.287 677.083 391.643 670.64C386.395 661.365 380.299 652.168 373.102 644.282C359.839 629.748 343.495 618.393 327.91 606.544C315.317 596.969 303.178 587.02 291.705 576.116C257.723 543.818 222.533 499.566 221.517 450.379C220.169 385.091 278.851 322.332 323.905 281.132C339.393 266.968 355.942 254.356 370.756 239.383C377.579 232.397 383.526 224.606 388.465 216.182C390.809 212.147 392.03 207.028 395.266 203.627C396.447 204.897 396.489 206.493 396.532 208.147C397.082 229.295 395.697 250.591 395.575 271.755L395.53 409.638C387.722 404.066 381.29 395.586 374.633 388.702C365.771 379.653 356.656 370.855 347.299 362.318C341.147 368.726 333.459 375.623 328.432 382.866C336.943 390.94 344.78 399.734 352.959 408.145C371.64 427.358 390.341 446.67 409.569 465.339C418.101 459.036 425.171 449.838 432.594 442.273L490.414 382.84C487.294 379.635 474.054 365.038 471.428 363.696L471.57 364.369L471.686 364.032L470.844 363.941C466.811 366.358 463.007 370.765 459.561 374.024C447.241 385.68 435.778 398.425 423.237 409.79C422.747 404.381 422.993 398.856 423.019 393.426L423.101 367.611L423.093 281.636C423.074 255.381 419.439 229.561 422.126 203.283Z"/>
	<path fill="#0D0B0D" fill-opacity="0.050980393" d="M405.163 683.647L405.438 683.913C405.947 685.302 405.846 686.47 405.765 687.93L405.306 687.497C404.743 686.249 405.03 684.966 405.163 683.647Z"/>
</svg>
