<?xml version="1.0" encoding="utf-8" ?>
<svg xmlns="http://www.w3.org/2000/svg" xmlns:xlink="http://www.w3.org/1999/xlink" width="796" height="843">
	<path fill="#182D45" d="M419.167 188.782C421.637 193.386 422.027 198.185 423.21 203.175C439.158 241.892 479.765 266.687 509.784 293.837C553.269 333.168 601.879 393.556 596.513 455.958C595.37 469.242 590.992 482.528 585.875 494.78C565.738 542.996 525.167 579.715 484.975 611.398C469.76 623.391 453.328 634.553 440.448 649.169C433.192 657.402 428.218 667.089 423.52 676.919C421.532 681.079 419.749 685.41 417.241 689.287L417.052 689.585C417.9 683.338 419.18 677.242 419.658 670.941C413.715 675.15 412.88 683.991 409.367 690.029C405.467 681.4 404.336 671.487 398.852 663.538C397.859 671.85 400.785 681.125 403.139 689.053C397.408 682.801 394.04 674.794 389.887 667.503C384.189 657.35 377.111 648.036 368.855 639.827C355.011 626.079 338.889 615.187 323.506 603.295C298.44 583.919 275.444 562.065 256.385 536.673C237.126 511.016 221.921 480.758 221.454 448.086C220.586 387.292 278.4 322.763 320.652 284.526C345.417 262.114 374.971 243.11 390.586 212.565C392.003 209.794 394.615 206.027 394.973 202.989C394.986 202.883 394.991 202.776 394.999 202.669C395.28 198.101 395.505 193.502 396.537 189.027C400.519 195.902 403.581 202.915 406.217 210.407C407.643 214.46 408.786 218.731 410.54 222.644C412.711 211.827 413.348 198.361 419.167 188.782Z"/>
	<path fill="#FF8F33" d="M255.753 442.671C270.253 428.297 284.094 413.616 299.549 400.217C306.098 407.287 312.539 414.507 319.227 421.442C312.031 429.366 304.93 437.415 297.597 445.21L371.103 519.13C383.955 532.061 397.074 544.812 409.661 557.996C432.462 534.17 455.505 510.577 478.786 487.219C493.054 472.815 507.152 458.21 522.016 444.416C514.588 436.971 507.44 429.251 500.587 421.273C507.029 414.208 513.349 407.04 520.555 400.732L562.662 443.484C534.096 472.734 505.354 501.812 476.438 530.715C458.274 548.876 439.47 566.435 422.269 585.539C423.115 611.544 424.758 638.518 421.271 664.346C421.062 665.893 420.935 669.402 420.035 670.638C419.859 670.88 419.86 670.858 419.658 670.941C413.715 675.15 412.88 683.991 409.367 690.029C405.467 681.4 404.336 671.487 398.852 663.538C392.694 653.211 395.659 601.045 396.437 586.362C381.881 567.996 364.682 552.136 348.152 535.603L289.648 476.69C278.241 465.364 265.834 455.289 255.753 442.671Z"/>
	<path fill="#FF8F33" d="M419.167 188.782C421.637 193.386 422.027 198.185 423.21 203.175C421.086 208.159 421.218 214.731 421.149 220.067C420.911 238.371 422.844 256.63 423.045 274.929C423.541 319.979 423.057 365.048 423.161 410.102C438.318 393.724 454.413 378.242 471.366 363.733L490.419 382.729C475.268 399.296 459.713 415.489 443.768 431.293C432.43 442.709 420.846 453.961 409.863 465.718C383.249 437.482 355.416 410.3 328.374 382.46C334.609 375.806 340.942 369.244 347.372 362.778C364.28 377.657 379.607 394.152 395.477 410.104C396.012 361.117 395.474 312.073 395.482 263.079C395.485 243.35 399.364 222.012 394.999 202.669C395.28 198.101 395.505 193.502 396.537 189.027C400.519 195.902 403.581 202.915 406.217 210.407C407.643 214.46 408.786 218.731 410.54 222.644C412.711 211.827 413.348 198.361 419.167 188.782Z"/>
</svg>
